<svg width="46" height="46" viewBox="0 0 46 46" fill="none" xmlns="http://www.w3.org/2000/svg">
<path d="M24 1C19.493 1.00541 15.172 2.82831 11.9851 6.06884C8.79811 9.30937 7.00534 13.7029 7.00002 18.2857C6.99462 22.0308 8.19771 25.6742 10.4247 28.6571C10.4247 28.6571 10.8884 29.2779 10.9641 29.3674L24 45L37.0421 29.3596C37.1101 29.2763 37.5753 28.6571 37.5753 28.6571L37.5768 28.6524C39.8027 25.6708 41.0053 22.0291 41 18.2857C40.9947 13.7029 39.2019 9.30937 36.0149 6.06884C32.828 2.82831 28.507 1.00541 24 1ZM29.5636 26.1429L24 22.5427L18.4364 26.1429L19.3636 19.7409L14.7273 15.4147L21.2182 14.618L24 8.85714L26.9549 14.6196L33.2727 15.4147L28.6364 19.7409L29.5636 26.1429Z" fill="#44C577"/>
</svg>