<svg width="46" height="46" viewBox="0 0 46 46" fill="none" xmlns="http://www.w3.org/2000/svg">
<path d="M30.9069 5.75C34.1013 5.75 36.777 6.93194 38.9339 9.29583C41.0908 11.6597 42.1686 14.4708 42.1673 17.7292C42.1673 18.3042 42.1354 18.8715 42.0715 19.4312C42.0076 19.9908 41.8958 20.5416 41.7361 21.0833H29.7569L26.4986 16.1958C26.3388 15.9403 26.1152 15.7326 25.8277 15.5729C25.5402 15.4132 25.2368 15.3333 24.9173 15.3333C24.502 15.3333 24.1264 15.4611 23.7903 15.7167C23.4543 15.9722 23.223 16.2917 23.0965 16.675L20.509 24.4375L18.8319 21.9458C18.6722 21.6903 18.4486 21.4826 18.1611 21.3229C17.8736 21.1632 17.5701 21.0833 17.2507 21.0833H4.26523C4.10551 20.5403 3.99371 19.9889 3.92982 19.4293C3.86593 18.8696 3.83398 18.3189 3.83398 17.7771C3.83398 14.4868 4.90412 11.6597 7.0444 9.29583C9.18468 6.93194 11.852 5.75 15.0465 5.75C16.5798 5.75 18.0256 6.05347 19.3839 6.66042C20.7422 7.26736 21.9478 8.11389 23.0007 9.2C24.0229 8.11389 25.2131 7.26736 26.5714 6.66042C27.9297 6.05347 29.3748 5.75 30.9069 5.75ZM23.0007 40.25C22.4257 40.25 21.8743 40.1459 21.3466 39.9376C20.8188 39.7293 20.348 39.4182 19.934 39.0042L7.09232 26.1146C6.90065 25.9229 6.72496 25.7313 6.56523 25.5396C6.40551 25.3479 6.24579 25.1403 6.08607 24.9167H16.1965L19.4548 29.8042C19.6145 30.0597 19.8382 30.2674 20.1257 30.4271C20.4132 30.5868 20.7166 30.6667 21.0361 30.6667C21.4513 30.6667 21.8347 30.5389 22.1861 30.2833C22.5375 30.0278 22.777 29.7083 22.9048 29.325L25.4923 21.5625L27.1215 24.0542C27.3132 24.3097 27.5527 24.5174 27.8402 24.6771C28.1277 24.8368 28.4312 24.9167 28.7507 24.9167H39.8673L39.3881 25.4917L38.909 26.0667L26.0194 39.0042C25.6041 39.4194 25.1409 39.7312 24.6298 39.9395C24.1187 40.1478 23.5757 40.2513 23.0007 40.25Z" fill="#FE8278"/>
</svg>