<svg width="46" height="46" viewBox="0 0 46 46" fill="none" xmlns="http://www.w3.org/2000/svg">
<path d="M23.0503 29.976C23.6325 22.8469 29.0519 17.2596 35.65 17.2596C36.2897 17.2596 36.915 17.3152 37.5259 17.4106L22.2453 2.55634C21.8141 2.15895 21.2391 2 20.7359 2C20.2328 2 19.6578 2.07948 19.1547 2.63582L0.71875 20.399C0.215625 20.9553 0 21.5911 0 22.3064C0 23.737 1.00625 24.8576 2.3 24.8576H4.6V30.3972C4.59281 30.4687 4.59281 30.5402 4.59281 30.6197V39.5132C4.59281 41.2697 5.87937 42.6923 7.46781 42.6923H8.61781C8.70406 42.6923 8.79031 42.6844 8.87656 42.6764C8.98438 42.6844 9.09219 42.6923 9.2 42.6923H13.225C14.8134 42.6923 16.1 41.2697 16.1 39.5132V32.5192C16.1 31.1125 17.1278 29.976 18.4 29.976H23.0503ZM46 31.2476C46 28.2123 44.9096 25.3013 42.9686 23.155C41.0276 21.0087 38.395 19.8029 35.65 19.8029C32.905 19.8029 30.2724 21.0087 28.3314 23.155C26.3904 25.3013 25.3 28.2123 25.3 31.2476C25.3 34.2829 26.3904 37.1939 28.3314 39.3402C30.2724 41.4865 32.905 42.6923 35.65 42.6923C38.395 42.6923 41.0276 41.4865 42.9686 39.3402C44.9096 37.1939 46 34.2829 46 31.2476ZM40.4872 27.8062C40.9328 28.299 40.9328 29.1097 40.4872 29.6024L35.3122 35.3248C34.8666 35.8175 34.1334 35.8175 33.6878 35.3248L30.8128 32.1457C30.3672 31.6529 30.3672 30.8423 30.8128 30.3495C31.2584 29.8567 31.9916 29.8567 32.4372 30.3495L34.5 32.6305L38.8628 27.8062C39.3084 27.3135 40.0416 27.3135 40.4872 27.8062Z" fill="#FE8278"/>
</svg>