<svg width="46" height="46" viewBox="0 0 46 46" fill="none" xmlns="http://www.w3.org/2000/svg">
<path d="M18.17 6.64843C14.924 5.09863 10.3868 4.33945 4.3125 4.31249C3.73963 4.30471 3.178 4.47176 2.7025 4.79136C2.31221 5.05517 1.99273 5.41084 1.77214 5.82709C1.55156 6.24334 1.43665 6.70742 1.4375 7.17851V32.8828C1.4375 34.6204 2.67375 35.9312 4.3125 35.9312C10.6977 35.9312 17.1027 36.5278 20.939 40.1539C20.9915 40.2037 21.0574 40.237 21.1287 40.2497C21.1999 40.2623 21.2733 40.2537 21.3398 40.225C21.4062 40.1963 21.4627 40.1487 21.5023 40.0881C21.5419 40.0276 21.5628 39.9567 21.5625 39.8843V9.5971C21.5627 9.39276 21.5189 9.19076 21.4343 9.00476C21.3497 8.81877 21.2261 8.65311 21.072 8.51898C20.1932 7.76774 19.2171 7.13854 18.17 6.64843ZM43.2975 4.78866C42.8218 4.46986 42.2601 4.30374 41.6875 4.31249C35.6132 4.33945 31.0761 5.09503 27.83 6.64843C26.783 7.13765 25.8066 7.76561 24.9272 8.51538C24.7733 8.64975 24.6501 8.81548 24.5656 9.00143C24.4811 9.18739 24.4375 9.38927 24.4375 9.59351V39.8825C24.4375 39.9521 24.458 40.0201 24.4964 40.078C24.5349 40.136 24.5896 40.1812 24.6537 40.2082C24.7178 40.2352 24.7884 40.2426 24.8567 40.2296C24.925 40.2166 24.988 40.1837 25.0377 40.135C27.344 37.844 31.3914 35.9285 41.6911 35.9294C42.4536 35.9294 43.1849 35.6265 43.724 35.0873C44.2632 34.5482 44.5661 33.8169 44.5661 33.0544V7.17941C44.5672 6.70739 44.452 6.24238 44.2307 5.82542C44.0095 5.40847 43.689 5.0524 43.2975 4.78866Z" fill="#FEAF38"/>
</svg>